<?xml version="1.0" standalone="no"?>
<!DOCTYPE svg PUBLIC "-//W3C//DTD SVG 20010904//EN"
 "http://www.w3.org/TR/2001/REC-SVG-20010904/DTD/svg10.dtd">
<svg version="1.0" xmlns="http://www.w3.org/2000/svg"
 width="512.000000pt" height="512.000000pt" viewBox="0 0 512.000000 512.000000"
 preserveAspectRatio="xMidYMid meet">
<metadata>
Created by potrace 1.14, written by Peter Selinger 2001-2017
</metadata>
<g transform="translate(0.000000,512.000000) scale(0.100000,-0.100000)"
fill="#000000" stroke="none">
<path d="M4185 5113 c-45 -10 -128 -44 -167 -69 -24 -15 -257 -243 -519 -506
l-477 -478 -1178 0 c-803 0 -1193 -4 -1224 -11 -62 -15 -107 -36 -164 -76 -84
-60 -127 -121 -161 -226 l-22 -68 0 -1104 c0 -608 4 -1128 8 -1157 19 -121
118 -255 230 -311 102 -51 123 -52 847 -51 l671 0 -4 -55 c-3 -31 -7 -78 -10
-106 -2 -27 -7 -95 -10 -150 -3 -55 -8 -116 -10 -135 -2 -19 -7 -78 -11 -130
-3 -52 -8 -106 -9 -120 -2 -14 -4 -33 -4 -42 -1 -16 -15 -18 -146 -18 -155 0
-180 -6 -221 -52 -59 -65 -46 -166 29 -222 28 -21 29 -21 927 -21 898 0 899 0
927 21 34 26 60 68 66 111 7 43 -28 111 -72 140 -31 21 -45 23 -182 23 -148 0
-149 0 -150 23 0 12 -2 29 -4 38 -1 9 -6 61 -9 115 -4 54 -9 119 -11 144 -2
25 -7 81 -10 125 -7 94 -13 178 -20 256 l-4 55 672 1 c370 0 690 3 713 6 116
17 226 88 295 190 78 117 72 28 74 1287 3 1253 5 1201 -65 1310 -73 113 -186
184 -323 202 l-82 11 141 143 c81 81 154 164 172 195 149 262 33 583 -250 691
-51 19 -204 32 -253 21z m152 -308 c44 -19 79 -50 99 -87 19 -36 18 -112 -2
-153 -19 -40 -1493 -1510 -1503 -1498 -4 4 -24 31 -46 58 -43 56 -90 101 -152
147 l-42 31 737 740 c464 465 750 746 773 756 49 23 92 24 136 6z m-1627
-1053 c0 -3 -75 -81 -167 -173 l-166 -168 -56 3 c-225 9 -478 -104 -606 -271
-129 -169 -258 -600 -321 -1073 -3 -19 -6 -44 -8 -56 -17 -95 -17 -153 0 -189
33 -71 97 -95 209 -81 343 45 634 105 850 177 50 17 141 55 203 85 92 45 126
67 181 122 138 138 209 303 217 507 l4 110 508 507 509 507 184 -1 c207 -1
238 -9 274 -70 20 -32 20 -51 20 -1135 l0 -1102 -21 -28 c-12 -15 -35 -36 -53
-47 -30 -17 -99 -18 -1911 -18 -1817 0 -1880 0 -1911 18 -18 11 -41 32 -53 47
l-21 28 -1 1087 c0 598 3 1101 8 1118 10 38 34 66 72 86 25 13 160 15 1042 15
558 0 1014 -2 1014 -5z m-258 -669 c187 -73 303 -251 292 -451 -8 -159 -94
-295 -229 -361 -137 -68 -516 -167 -750 -197 -16 -2 -38 -7 -48 -10 -17 -5
-18 -2 -13 43 4 26 9 55 11 63 2 8 6 33 10 55 10 71 16 98 40 205 97 418 161
547 314 629 59 31 85 39 161 48 25 3 46 6 48 7 7 7 126 -16 164 -31z m339
-2037 c0 -6 2 -33 4 -61 2 -27 7 -88 10 -135 3 -47 7 -107 10 -135 3 -27 7
-79 10 -115 8 -115 17 -244 19 -270 l1 -25 -286 -3 -287 -2 3 32 c5 60 15 182
21 268 3 47 7 101 9 120 2 19 7 80 11 135 4 55 8 111 9 125 2 14 3 37 4 51 l1
25 230 0 c156 0 230 -3 231 -10z"/>
</g>
</svg>
